<?xml version="1.0" standalone="no"?>
<!DOCTYPE svg PUBLIC "-//W3C//DTD SVG 20010904//EN"
 "http://www.w3.org/TR/2001/REC-SVG-20010904/DTD/svg10.dtd">
<svg version="1.0" xmlns="http://www.w3.org/2000/svg"
 width="488.000000pt" height="488.000000pt" viewBox="0 0 488.000000 488.000000"
 preserveAspectRatio="xMidYMid meet">
<metadata>
Created by potrace 1.11, written by Peter Selinger 2001-2013
</metadata>
<g transform="translate(0.000000,488.000000) scale(0.100000,-0.100000)"
fill="#000000" stroke="none">
<path d="M1968 4645 c-2 -2 -19 -6 -38 -10 -52 -8 -189 -80 -236 -122 -251
-230 -242 -615 19 -830 104 -86 222 -124 362 -119 216 8 401 135 482 331 128
307 -46 654 -371 738 -49 13 -208 21 -218 12z"/>
<path d="M3179 3976 c-2 -2 -31 -7 -64 -11 -281 -32 -563 -173 -781 -389 -77
-78 -194 -224 -194 -245 0 -5 -4 -11 -9 -13 -30 -11 -156 -334 -175 -448 -3
-19 -9 -46 -12 -60 -3 -14 -7 -92 -9 -175 -5 -246 38 -444 143 -650 101 -198
278 -398 458 -517 90 -60 211 -126 260 -141 10 -3 39 -13 64 -22 55 -21 69
-24 236 -60 61 -14 320 -14 405 0 153 23 364 90 431 137 14 10 29 18 34 18 4
0 51 29 104 65 116 77 265 219 346 330 99 135 205 367 229 500 7 43 14 77 21
105 3 14 7 90 9 170 4 199 -11 304 -72 490 -8 25 -35 88 -60 140 -186 387
-552 670 -978 756 -69 14 -376 29 -386 20z"/>
<path d="M1190 3393 c-101 -19 -215 -80 -290 -155 -234 -237 -205 -617 63
-821 152 -116 366 -138 550 -57 194 86 329 309 314 519 -8 109 -13 127 -57
218 -69 141 -207 252 -356 286 -59 14 -177 19 -224 10z"/>
<path d="M1020 2259 c-364 -74 -652 -331 -769 -684 -37 -112 -41 -141 -46
-290 -3 -129 11 -236 46 -342 118 -357 431 -627 798 -688 105 -17 288 -13 388
9 387 84 694 391 779 779 24 109 26 313 3 417 -10 47 -20 90 -22 95 -100 318
-347 570 -660 674 -152 51 -358 63 -517 30z"/>
</g>
</svg>
