{
    "asset" : {
        "generator" : "Khronos glTF Blender I/O v1.2.75",
        "version" : "2.0"
    },
    "scene" : 0,
    "scenes" : [
        {
            "name" : "Scene",
            "nodes" : [
                0
            ]
        }
    ],
    "nodes" : [
        {
            "mesh" : 0,
            "name" : "Coral.003"
        }
    ],
    "materials" : [
        {
            "doubleSided" : true,
            "emissiveFactor" : [
                0,
                0,
                0
            ],
            "name" : "Coral",
            "pbrMetallicRoughness" : {
                "baseColorFactor" : [
                    0.2058454155921936,
                    0.11066074669361115,
                    0.5987228155136108,
                    1
                ],
                "metallicFactor" : 0,
                "roughnessFactor" : 0.8090909123420715
            }
        }
    ],
    "meshes" : [
        {
            "name" : "CoralMesh.004",
            "primitives" : [
                {
                    "attributes" : {
                        "POSITION" : 0,
                        "NORMAL" : 1
                    },
                    "indices" : 2,
                    "material" : 0
                }
            ]
        }
    ],
    "accessors" : [
        {
            "bufferView" : 0,
            "componentType" : 5126,
            "count" : 4532,
            "max" : [
                0.19561438262462616,
                0.38961368799209595,
                0.1861351728439331
            ],
            "min" : [
                -0.16089747846126556,
                -0.007277731783688068,
                -0.14562763273715973
            ],
            "type" : "VEC3"
        },
        {
            "bufferView" : 1,
            "componentType" : 5126,
            "count" : 4532,
            "type" : "VEC3"
        },
        {
            "bufferView" : 2,
            "componentType" : 5123,
            "count" : 4770,
            "type" : "SCALAR"
        }
    ],
    "bufferViews" : [
        {
            "buffer" : 0,
            "byteLength" : 54384,
            "byteOffset" : 0
        },
        {
            "buffer" : 0,
            "byteLength" : 54384,
            "byteOffset" : 54384
        },
        {
            "buffer" : 0,
            "byteLength" : 9540,
            "byteOffset" : 108768
        }
    ],
    "buffers" : [
        {
            "byteLength" : 118308,
            "uri" : "data:application/octet-stream;base64,"
        }
    ]
}
