{
    "asset" : {
        "generator" : "Khronos glTF Blender I/O v1.2.75",
        "version" : "2.0"
    },
    "scene" : 0,
    "scenes" : [
        {
            "name" : "Scene",
            "nodes" : [
                0
            ]
        }
    ],
    "nodes" : [
        {
            "mesh" : 0,
            "name" : "Coral.001"
        }
    ],
    "materials" : [
        {
            "doubleSided" : true,
            "emissiveFactor" : [
                0,
                0,
                0
            ],
            "name" : "Coral",
            "pbrMetallicRoughness" : {
                "baseColorFactor" : [
                    0.2058454155921936,
                    0.11066074669361115,
                    0.5987228155136108,
                    1
                ],
                "metallicFactor" : 0,
                "roughnessFactor" : 0.8090909123420715
            }
        }
    ],
    "meshes" : [
        {
            "name" : "CoralMesh.002",
            "primitives" : [
                {
                    "attributes" : {
                        "POSITION" : 0,
                        "NORMAL" : 1
                    },
                    "indices" : 2,
                    "material" : 0
                }
            ]
        }
    ],
    "accessors" : [
        {
            "bufferView" : 0,
            "componentType" : 5126,
            "count" : 3976,
            "max" : [
                0.2211812138557434,
                0.5070708990097046,
                0.3873921036720276
            ],
            "min" : [
                -0.23959770798683167,
                0.0005219276063144207,
                -0.28675639629364014
            ],
            "type" : "VEC3"
        },
        {
            "bufferView" : 1,
            "componentType" : 5126,
            "count" : 3976,
            "type" : "VEC3"
        },
        {
            "bufferView" : 2,
            "componentType" : 5123,
            "count" : 3996,
            "type" : "SCALAR"
        }
    ],
    "bufferViews" : [
        {
            "buffer" : 0,
            "byteLength" : 47712,
            "byteOffset" : 0
        },
        {
            "buffer" : 0,
            "byteLength" : 47712,
            "byteOffset" : 47712
        },
        {
            "buffer" : 0,
            "byteLength" : 7992,
            "byteOffset" : 95424
        }
    ],
    "buffers" : [
        {
            "byteLength" : 103416,
            "uri" : "data:application/octet-stream;base64,"
        }
    ]
}
