{
    "asset" : {
        "generator" : "Khronos glTF Blender I/O v1.2.75",
        "version" : "2.0"
    },
    "scene" : 0,
    "scenes" : [
        {
            "name" : "Scene",
            "nodes" : [
                0
            ]
        }
    ],
    "nodes" : [
        {
            "mesh" : 0,
            "name" : "Coral.002"
        }
    ],
    "materials" : [
        {
            "doubleSided" : true,
            "emissiveFactor" : [
                0,
                0,
                0
            ],
            "name" : "Coral",
            "pbrMetallicRoughness" : {
                "baseColorFactor" : [
                    0.2058454155921936,
                    0.11066074669361115,
                    0.5987228155136108,
                    1
                ],
                "metallicFactor" : 0,
                "roughnessFactor" : 0.8090909123420715
            }
        }
    ],
    "meshes" : [
        {
            "name" : "CoralMesh.003",
            "primitives" : [
                {
                    "attributes" : {
                        "POSITION" : 0,
                        "NORMAL" : 1
                    },
                    "indices" : 2,
                    "material" : 0
                }
            ]
        }
    ],
    "accessors" : [
        {
            "bufferView" : 0,
            "componentType" : 5126,
            "count" : 2454,
            "max" : [
                0.1684533655643463,
                0.5317208170890808,
                0.13066965341567993
            ],
            "min" : [
                -0.18100225925445557,
                -0.007486849557608366,
                -0.17529000341892242
            ],
            "type" : "VEC3"
        },
        {
            "bufferView" : 1,
            "componentType" : 5126,
            "count" : 2454,
            "type" : "VEC3"
        },
        {
            "bufferView" : 2,
            "componentType" : 5123,
            "count" : 2598,
            "type" : "SCALAR"
        }
    ],
    "bufferViews" : [
        {
            "buffer" : 0,
            "byteLength" : 29448,
            "byteOffset" : 0
        },
        {
            "buffer" : 0,
            "byteLength" : 29448,
            "byteOffset" : 29448
        },
        {
            "buffer" : 0,
            "byteLength" : 5196,
            "byteOffset" : 58896
        }
    ],
    "buffers" : [
        {
            "byteLength" : 64092,
            "uri" : "data:application/octet-stream;base64,"
        }
    ]
}
