{
    "asset" : {
        "generator" : "Khronos glTF Blender I/O v1.2.75",
        "version" : "2.0"
    },
    "scene" : 0,
    "scenes" : [
        {
            "name" : "Scene",
            "nodes" : [
                0
            ]
        }
    ],
    "nodes" : [
        {
            "mesh" : 0,
            "name" : "Coral.006"
        }
    ],
    "materials" : [
        {
            "doubleSided" : true,
            "emissiveFactor" : [
                0,
                0,
                0
            ],
            "name" : "Coral",
            "pbrMetallicRoughness" : {
                "baseColorFactor" : [
                    0.2058454155921936,
                    0.11066074669361115,
                    0.5987228155136108,
                    1
                ],
                "metallicFactor" : 0,
                "roughnessFactor" : 0.8090909123420715
            }
        }
    ],
    "meshes" : [
        {
            "name" : "CoralMesh.006",
            "primitives" : [
                {
                    "attributes" : {
                        "POSITION" : 0,
                        "NORMAL" : 1
                    },
                    "indices" : 2,
                    "material" : 0
                }
            ]
        }
    ],
    "accessors" : [
        {
            "bufferView" : 0,
            "componentType" : 5126,
            "count" : 1748,
            "max" : [
                0.028871245682239532,
                0.38152673840522766,
                0.30315256118774414
            ],
            "min" : [
                -0.02193423919379711,
                -0.006202555727213621,
                -0.2341686338186264
            ],
            "type" : "VEC3"
        },
        {
            "bufferView" : 1,
            "componentType" : 5126,
            "count" : 1748,
            "type" : "VEC3"
        },
        {
            "bufferView" : 2,
            "componentType" : 5123,
            "count" : 2262,
            "type" : "SCALAR"
        }
    ],
    "bufferViews" : [
        {
            "buffer" : 0,
            "byteLength" : 20976,
            "byteOffset" : 0
        },
        {
            "buffer" : 0,
            "byteLength" : 20976,
            "byteOffset" : 20976
        },
        {
            "buffer" : 0,
            "byteLength" : 4524,
            "byteOffset" : 41952
        }
    ],
    "buffers" : [
        {
            "byteLength" : 46476,
            "uri" : "data:application/octet-stream;base64,"
        }
    ]
}
