{
    "asset" : {
        "generator" : "Khronos glTF Blender I/O v1.2.75",
        "version" : "2.0"
    },
    "scene" : 0,
    "scenes" : [
        {
            "name" : "Scene",
            "nodes" : [
                0
            ]
        }
    ],
    "nodes" : [
        {
            "mesh" : 0,
            "name" : "Coral"
        }
    ],
    "materials" : [
        {
            "doubleSided" : true,
            "emissiveFactor" : [
                0,
                0,
                0
            ],
            "name" : "Coral",
            "pbrMetallicRoughness" : {
                "baseColorFactor" : [
                    0.2058454155921936,
                    0.11066074669361115,
                    0.5987228155136108,
                    1
                ],
                "metallicFactor" : 0,
                "roughnessFactor" : 0.8090909123420715
            }
        }
    ],
    "meshes" : [
        {
            "name" : "CoralMesh.001",
            "primitives" : [
                {
                    "attributes" : {
                        "POSITION" : 0,
                        "NORMAL" : 1,
                        "TEXCOORD_0" : 2
                    },
                    "indices" : 3,
                    "material" : 0
                }
            ]
        }
    ],
    "accessors" : [
        {
            "bufferView" : 0,
            "componentType" : 5126,
            "count" : 690,
            "max" : [
                0.13391204178333282,
                0.5051791071891785,
                0.08274740725755692
            ],
            "min" : [
                -0.11779037863016129,
                -0.009720073081552982,
                -0.08322862535715103
            ],
            "type" : "VEC3"
        },
        {
            "bufferView" : 1,
            "componentType" : 5126,
            "count" : 690,
            "type" : "VEC3"
        },
        {
            "bufferView" : 2,
            "componentType" : 5126,
            "count" : 690,
            "type" : "VEC2"
        },
        {
            "bufferView" : 3,
            "componentType" : 5123,
            "count" : 822,
            "type" : "SCALAR"
        }
    ],
    "bufferViews" : [
        {
            "buffer" : 0,
            "byteLength" : 8280,
            "byteOffset" : 0
        },
        {
            "buffer" : 0,
            "byteLength" : 8280,
            "byteOffset" : 8280
        },
        {
            "buffer" : 0,
            "byteLength" : 5520,
            "byteOffset" : 16560
        },
        {
            "buffer" : 0,
            "byteLength" : 1644,
            "byteOffset" : 22080
        }
    ],
    "buffers" : [
        {
            "byteLength" : 23724,
            "uri" : "data:application/octet-stream;base64,"
        }
    ]
}
