{
    "asset" : {
        "generator" : "Khronos glTF Blender I/O v1.2.75",
        "version" : "2.0"
    },
    "scene" : 0,
    "scenes" : [
        {
            "name" : "Scene",
            "nodes" : [
                0,
                1,
                2
            ]
        }
    ],
    "nodes" : [
        {
            "mesh" : 0,
            "name" : "Head holder",
            "translation" : [
                0,
                2,
                0
            ]
        },
        {
            "mesh" : 1,
            "name" : "Pole",
            "translation" : [
                0,
                1,
                0
            ]
        },
        {
            "mesh" : 2,
            "name" : "Head",
            "scale" : [
                1,
                0.9777777791023254,
                1
            ],
            "translation" : [
                0,
                2.25,
                0
            ]
        }
    ],
    "materials" : [
        {
            "doubleSided" : true,
            "name" : "HeadBottomTEX",
            "pbrMetallicRoughness" : {}
        },
        {
            "doubleSided" : true,
            "name" : "PoleTEX",
            "pbrMetallicRoughness" : {}
        },
        {
            "doubleSided" : true,
            "name" : "HeadTEX",
            "pbrMetallicRoughness" : {}
        }
    ],
    "meshes" : [
        {
            "name" : "Cube.001",
            "primitives" : [
                {
                    "attributes" : {
                        "POSITION" : 0,
                        "NORMAL" : 1,
                        "TEXCOORD_0" : 2
                    },
                    "indices" : 3,
                    "material" : 0
                }
            ]
        },
        {
            "name" : "Cylinder",
            "primitives" : [
                {
                    "attributes" : {
                        "POSITION" : 4,
                        "NORMAL" : 5,
                        "TEXCOORD_0" : 6
                    },
                    "indices" : 7,
                    "material" : 1
                }
            ]
        },
        {
            "name" : "Cube.002",
            "primitives" : [
                {
                    "attributes" : {
                        "POSITION" : 8,
                        "NORMAL" : 9,
                        "TEXCOORD_0" : 10
                    },
                    "indices" : 3,
                    "material" : 2
                }
            ]
        }
    ],
    "accessors" : [
        {
            "bufferView" : 0,
            "componentType" : 5126,
            "count" : 28,
            "max" : [
                0.12000002712011337,
                0.009999999776482582,
                0.021000001579523087
            ],
            "min" : [
                -0.12000002712011337,
                -0.009999999776482582,
                -0.021000001579523087
            ],
            "type" : "VEC3"
        },
        {
            "bufferView" : 1,
            "componentType" : 5126,
            "count" : 28,
            "type" : "VEC3"
        },
        {
            "bufferView" : 2,
            "componentType" : 5126,
            "count" : 28,
            "type" : "VEC2"
        },
        {
            "bufferView" : 3,
            "componentType" : 5123,
            "count" : 48,
            "type" : "SCALAR"
        },
        {
            "bufferView" : 4,
            "componentType" : 5126,
            "count" : 320,
            "max" : [
                0.03753457963466644,
                1,
                0.03773287683725357
            ],
            "min" : [
                -0.03750000149011612,
                -1,
                -0.03750000149011612
            ],
            "type" : "VEC3"
        },
        {
            "bufferView" : 5,
            "componentType" : 5126,
            "count" : 320,
            "type" : "VEC3"
        },
        {
            "bufferView" : 6,
            "componentType" : 5126,
            "count" : 320,
            "type" : "VEC2"
        },
        {
            "bufferView" : 7,
            "componentType" : 5123,
            "count" : 564,
            "type" : "SCALAR"
        },
        {
            "bufferView" : 8,
            "componentType" : 5126,
            "count" : 28,
            "max" : [
                0.11000002175569534,
                0.20249998569488525,
                0.010999999940395355
            ],
            "min" : [
                -0.11000002175569534,
                -0.2475000023841858,
                -0.010999999940395355
            ],
            "type" : "VEC3"
        },
        {
            "bufferView" : 9,
            "componentType" : 5126,
            "count" : 28,
            "type" : "VEC3"
        },
        {
            "bufferView" : 10,
            "componentType" : 5126,
            "count" : 28,
            "type" : "VEC2"
        }
    ],
    "bufferViews" : [
        {
            "buffer" : 0,
            "byteLength" : 336,
            "byteOffset" : 0
        },
        {
            "buffer" : 0,
            "byteLength" : 336,
            "byteOffset" : 336
        },
        {
            "buffer" : 0,
            "byteLength" : 224,
            "byteOffset" : 672
        },
        {
            "buffer" : 0,
            "byteLength" : 96,
            "byteOffset" : 896
        },
        {
            "buffer" : 0,
            "byteLength" : 3840,
            "byteOffset" : 992
        },
        {
            "buffer" : 0,
            "byteLength" : 3840,
            "byteOffset" : 4832
        },
        {
            "buffer" : 0,
            "byteLength" : 2560,
            "byteOffset" : 8672
        },
        {
            "buffer" : 0,
            "byteLength" : 1128,
            "byteOffset" : 11232
        },
        {
            "buffer" : 0,
            "byteLength" : 336,
            "byteOffset" : 12360
        },
        {
            "buffer" : 0,
            "byteLength" : 336,
            "byteOffset" : 12696
        },
        {
            "buffer" : 0,
            "byteLength" : 224,
            "byteOffset" : 13032
        }
    ],
    "buffers" : [
        {
            "byteLength" : 13256,
            "uri" : "data:application/octet-stream;base64,"
        }
    ]
}
