{
    "asset" : {
        "generator" : "Khronos glTF Blender I/O v1.2.75",
        "version" : "2.0"
    },
    "scene" : 1,
    "scenes" : [
        {
            "name" : "Grid"
        },
        {
            "name" : "RockFormation",
            "nodes" : [
                0
            ]
        },
        {
            "name" : "ToExport"
        }
    ],
    "nodes" : [
        {
            "mesh" : 0,
            "name" : "Icosphere.009",
            "rotation" : [
                0.11241220682859421,
                -0.6970564723014832,
                -0.026912668719887733,
                0.7076380252838135
            ],
            "translation" : [
                -2.2064449787139893,
                0.8489182591438293,
                1.8830701112747192
            ]
        }
    ],
    "materials" : [
        {
            "doubleSided" : true,
            "emissiveFactor" : [
                0,
                0,
                0
            ],
            "name" : "Rock.001",
            "pbrMetallicRoughness" : {
                "baseColorFactor" : [
                    0.26098933815956116,
                    0.31373679637908936,
                    0.31373679637908936,
                    1
                ],
                "metallicFactor" : 0,
                "roughnessFactor" : 0.4000000059604645
            }
        }
    ],
    "meshes" : [
        {
            "name" : "Icosphere.009",
            "primitives" : [
                {
                    "attributes" : {
                        "POSITION" : 0,
                        "NORMAL" : 1,
                        "TEXCOORD_0" : 2
                    },
                    "indices" : 3,
                    "material" : 0
                }
            ]
        }
    ],
    "accessors" : [
        {
            "bufferView" : 0,
            "componentType" : 5126,
            "count" : 128,
            "max" : [
                1.012829065322876,
                0.6265143752098083,
                1.2127594947814941
            ],
            "min" : [
                -1.1931127309799194,
                -0.8073492646217346,
                -1.280027151107788
            ],
            "type" : "VEC3"
        },
        {
            "bufferView" : 1,
            "componentType" : 5126,
            "count" : 128,
            "type" : "VEC3"
        },
        {
            "bufferView" : 2,
            "componentType" : 5126,
            "count" : 128,
            "type" : "VEC2"
        },
        {
            "bufferView" : 3,
            "componentType" : 5123,
            "count" : 138,
            "type" : "SCALAR"
        }
    ],
    "bufferViews" : [
        {
            "buffer" : 0,
            "byteLength" : 1536,
            "byteOffset" : 0
        },
        {
            "buffer" : 0,
            "byteLength" : 1536,
            "byteOffset" : 1536
        },
        {
            "buffer" : 0,
            "byteLength" : 1024,
            "byteOffset" : 3072
        },
        {
            "buffer" : 0,
            "byteLength" : 276,
            "byteOffset" : 4096
        }
    ],
    "buffers" : [
        {
            "byteLength" : 4372,
            "uri" : "data:application/octet-stream;base64,"
        }
    ]
}
