{
    "asset" : {
        "generator" : "Khronos glTF Blender I/O v1.2.75",
        "version" : "2.0"
    },
    "scene" : 1,
    "scenes" : [
        {
            "name" : "Grid"
        },
        {
            "name" : "RockFormation",
            "nodes" : [
                0
            ]
        },
        {
            "name" : "ToExport"
        }
    ],
    "nodes" : [
        {
            "mesh" : 0,
            "name" : "Icosphere.011",
            "rotation" : [
                0.04336269944906235,
                -0.0766122117638588,
                -0.001524555147625506,
                0.9961163997650146
            ],
            "scale" : [
                0.8883965611457825,
                0.8883965611457825,
                0.8883965611457825
            ],
            "translation" : [
                -2.629258871078491,
                0.4852136969566345,
                -2.477048873901367
            ]
        }
    ],
    "materials" : [
        {
            "doubleSided" : true,
            "emissiveFactor" : [
                0,
                0,
                0
            ],
            "name" : "Rock.001",
            "pbrMetallicRoughness" : {
                "baseColorFactor" : [
                    0.26098933815956116,
                    0.31373679637908936,
                    0.31373679637908936,
                    1
                ],
                "metallicFactor" : 0,
                "roughnessFactor" : 0.4000000059604645
            }
        }
    ],
    "meshes" : [
        {
            "name" : "Icosphere.011",
            "primitives" : [
                {
                    "attributes" : {
                        "POSITION" : 0,
                        "NORMAL" : 1,
                        "TEXCOORD_0" : 2
                    },
                    "indices" : 3,
                    "material" : 0
                }
            ]
        }
    ],
    "accessors" : [
        {
            "bufferView" : 0,
            "componentType" : 5126,
            "count" : 100,
            "max" : [
                1.1653051376342773,
                0.4725722074508667,
                1.0732191801071167
            ],
            "min" : [
                -0.854604959487915,
                -0.616884171962738,
                -1.278350830078125
            ],
            "type" : "VEC3"
        },
        {
            "bufferView" : 1,
            "componentType" : 5126,
            "count" : 100,
            "type" : "VEC3"
        },
        {
            "bufferView" : 2,
            "componentType" : 5126,
            "count" : 100,
            "type" : "VEC2"
        },
        {
            "bufferView" : 3,
            "componentType" : 5123,
            "count" : 108,
            "type" : "SCALAR"
        }
    ],
    "bufferViews" : [
        {
            "buffer" : 0,
            "byteLength" : 1200,
            "byteOffset" : 0
        },
        {
            "buffer" : 0,
            "byteLength" : 1200,
            "byteOffset" : 1200
        },
        {
            "buffer" : 0,
            "byteLength" : 800,
            "byteOffset" : 2400
        },
        {
            "buffer" : 0,
            "byteLength" : 216,
            "byteOffset" : 3200
        }
    ],
    "buffers" : [
        {
            "byteLength" : 3416,
            "uri" : "data:application/octet-stream;base64,"
        }
    ]
}
