{
    "asset" : {
        "generator" : "Khronos glTF Blender I/O v1.2.75",
        "version" : "2.0"
    },
    "scene" : 1,
    "scenes" : [
        {
            "name" : "Grid"
        },
        {
            "name" : "RockFormation",
            "nodes" : [
                0
            ]
        },
        {
            "name" : "ToExport"
        }
    ],
    "nodes" : [
        {
            "mesh" : 0,
            "name" : "Icosphere.010",
            "rotation" : [
                0.0076711466535925865,
                -0.4681799113750458,
                -0.0010801401222124696,
                0.8835992217063904
            ],
            "scale" : [
                0.8883966207504272,
                0.8883965611457825,
                0.8883965611457825
            ],
            "translation" : [
                0.10071706771850586,
                0.5602836012840271,
                -4.441542625427246
            ]
        }
    ],
    "materials" : [
        {
            "doubleSided" : true,
            "emissiveFactor" : [
                0,
                0,
                0
            ],
            "name" : "Rock.001",
            "pbrMetallicRoughness" : {
                "baseColorFactor" : [
                    0.26098933815956116,
                    0.31373679637908936,
                    0.31373679637908936,
                    1
                ],
                "metallicFactor" : 0,
                "roughnessFactor" : 0.4000000059604645
            }
        }
    ],
    "meshes" : [
        {
            "name" : "Icosphere.010",
            "primitives" : [
                {
                    "attributes" : {
                        "POSITION" : 0,
                        "NORMAL" : 1,
                        "TEXCOORD_0" : 2
                    },
                    "indices" : 3,
                    "material" : 0
                }
            ]
        }
    ],
    "accessors" : [
        {
            "bufferView" : 0,
            "componentType" : 5126,
            "count" : 100,
            "max" : [
                1.2180039882659912,
                0.6313171982765198,
                1.2311972379684448
            ],
            "min" : [
                -0.9959790110588074,
                -0.6689581274986267,
                -1.2869353294372559
            ],
            "type" : "VEC3"
        },
        {
            "bufferView" : 1,
            "componentType" : 5126,
            "count" : 100,
            "type" : "VEC3"
        },
        {
            "bufferView" : 2,
            "componentType" : 5126,
            "count" : 100,
            "type" : "VEC2"
        },
        {
            "bufferView" : 3,
            "componentType" : 5123,
            "count" : 108,
            "type" : "SCALAR"
        }
    ],
    "bufferViews" : [
        {
            "buffer" : 0,
            "byteLength" : 1200,
            "byteOffset" : 0
        },
        {
            "buffer" : 0,
            "byteLength" : 1200,
            "byteOffset" : 1200
        },
        {
            "buffer" : 0,
            "byteLength" : 800,
            "byteOffset" : 2400
        },
        {
            "buffer" : 0,
            "byteLength" : 216,
            "byteOffset" : 3200
        }
    ],
    "buffers" : [
        {
            "byteLength" : 3416,
            "uri" : "data:application/octet-stream;base64,"
        }
    ]
}
