{
    "asset" : {
        "generator" : "Khronos glTF Blender I/O v1.2.75",
        "version" : "2.0"
    },
    "scene" : 1,
    "scenes" : [
        {
            "name" : "Grid"
        },
        {
            "name" : "RockFormation",
            "nodes" : [
                0
            ]
        },
        {
            "name" : "ToExport"
        }
    ],
    "nodes" : [
        {
            "mesh" : 0,
            "name" : "Icosphere.007",
            "translation" : [
                -0.26099491119384766,
                0.534800112247467,
                1.9244457483291626
            ]
        }
    ],
    "materials" : [
        {
            "doubleSided" : true,
            "emissiveFactor" : [
                0,
                0,
                0
            ],
            "name" : "Rock.001",
            "pbrMetallicRoughness" : {
                "baseColorFactor" : [
                    0.26098933815956116,
                    0.31373679637908936,
                    0.31373679637908936,
                    1
                ],
                "metallicFactor" : 0,
                "roughnessFactor" : 0.4000000059604645
            }
        }
    ],
    "meshes" : [
        {
            "name" : "Icosphere.007",
            "primitives" : [
                {
                    "attributes" : {
                        "POSITION" : 0,
                        "NORMAL" : 1,
                        "TEXCOORD_0" : 2
                    },
                    "indices" : 3,
                    "material" : 0
                }
            ]
        }
    ],
    "accessors" : [
        {
            "bufferView" : 0,
            "componentType" : 5126,
            "count" : 60,
            "max" : [
                0.5012544989585876,
                0.31749123334884644,
                0.8506399989128113
            ],
            "min" : [
                -0.7341578006744385,
                -0.4472149908542633,
                -0.8103505373001099
            ],
            "type" : "VEC3"
        },
        {
            "bufferView" : 1,
            "componentType" : 5126,
            "count" : 60,
            "type" : "VEC3"
        },
        {
            "bufferView" : 2,
            "componentType" : 5126,
            "count" : 60,
            "type" : "VEC2"
        },
        {
            "bufferView" : 3,
            "componentType" : 5123,
            "count" : 60,
            "type" : "SCALAR"
        }
    ],
    "bufferViews" : [
        {
            "buffer" : 0,
            "byteLength" : 720,
            "byteOffset" : 0
        },
        {
            "buffer" : 0,
            "byteLength" : 720,
            "byteOffset" : 720
        },
        {
            "buffer" : 0,
            "byteLength" : 480,
            "byteOffset" : 1440
        },
        {
            "buffer" : 0,
            "byteLength" : 120,
            "byteOffset" : 1920
        }
    ],
    "buffers" : [
        {
            "byteLength" : 2040,
            "uri" : "data:application/octet-stream;base64,"
        }
    ]
}
