<?xml version="1.0" standalone="no"?>
<!DOCTYPE svg PUBLIC "-//W3C//DTD SVG 20010904//EN"
 "http://www.w3.org/TR/2001/REC-SVG-20010904/DTD/svg10.dtd">
<svg version="1.0" xmlns="http://www.w3.org/2000/svg"
 width="500.000000pt" height="500.000000pt" viewBox="0 0 500.000000 500.000000"
 preserveAspectRatio="xMidYMid meet">
<metadata>
Created by potrace 1.11, written by Peter Selinger 2001-2013
</metadata>
<g transform="translate(0.000000,500.000000) scale(0.100000,-0.100000)"
fill="#000000" stroke="none">
<path d="M1676 4983 c-4 -17 -53 -235 -62 -276 -2 -10 -5 -26 -8 -35 -3 -9 -7
-28 -10 -42 -2 -14 -45 -211 -95 -439 -51 -227 -90 -415 -88 -417 5 -5 105 9
342 46 39 6 84 13 100 15 17 2 48 7 70 10 22 4 51 8 65 10 14 2 57 9 95 15 39
6 81 13 95 15 14 2 44 6 68 10 23 4 52 8 65 10 67 9 125 17 147 21 30 5 129
20 185 29 162 24 244 36 270 41 46 8 76 12 125 18 25 3 54 8 65 10 12 2 47 7
79 11 l58 8 -328 217 c-181 120 -507 335 -724 479 l-395 261 -57 0 c-45 0 -58
-3 -62 -17z"/>
<path d="M3790 4608 c-56 -79 -108 -152 -116 -163 -79 -107 -544 -761 -544
-766 0 -3 21 -11 48 -17 26 -7 54 -14 62 -16 8 -3 105 -28 215 -56 110 -28
234 -60 275 -71 41 -11 84 -22 95 -25 11 -2 260 -66 553 -142 337 -88 531
-134 528 -126 -5 13 -71 114 -472 720 -120 182 -289 437 -374 567 -85 130
-158 236 -162 237 -4 0 -53 -64 -108 -142z"/>
<path d="M692 4441 c-167 -136 -319 -261 -339 -277 -21 -16 -64 -52 -98 -80
-33 -27 -104 -85 -158 -129 -71 -57 -97 -83 -95 -97 2 -14 112 -82 378 -235
206 -118 404 -231 440 -250 36 -20 77 -44 92 -54 14 -11 28 -19 31 -19 2 0 56
-30 118 -66 63 -37 139 -81 169 -97 30 -17 114 -65 185 -107 118 -69 165 -94
165 -87 0 1 -38 117 -84 257 -231 706 -381 1162 -431 1318 -31 94 -60 172 -63
171 -4 0 -143 -112 -310 -248z"/>
<path d="M1946 3703 c-3 -10 -14 -67 -26 -128 -11 -60 -22 -121 -25 -135 -3
-14 -7 -36 -10 -50 -3 -14 -7 -36 -10 -50 -3 -14 -8 -38 -11 -55 -3 -16 -16
-86 -30 -155 -14 -69 -29 -147 -34 -175 -5 -27 -27 -144 -50 -260 -58 -294
-57 -279 -28 -272 12 3 52 11 88 16 36 6 76 13 90 16 14 3 41 8 60 11 19 3 73
12 120 21 47 8 94 17 105 19 11 2 126 21 255 44 129 22 246 43 260 45 14 3 77
14 140 25 63 11 124 22 136 24 11 2 101 18 200 35 98 17 188 33 199 35 11 2
40 7 65 12 25 4 48 9 53 10 4 1 13 2 19 3 7 0 -1 9 -19 19 -17 9 -129 79 -249
155 -121 76 -228 144 -238 150 -50 31 -195 121 -226 142 -66 42 -755 473 -792
494 -34 21 -37 21 -42 4z"/>
<path d="M4675 2909 c-77 -21 -156 -43 -175 -49 -42 -12 -548 -150 -570 -155
-8 -2 -116 -31 -240 -65 -124 -34 -232 -63 -240 -65 -8 -2 -40 -11 -70 -19
-30 -8 -104 -28 -165 -45 -60 -16 -123 -33 -138 -38 l-28 -8 29 -40 c58 -81
307 -421 333 -455 14 -19 102 -138 194 -265 92 -126 181 -248 198 -271 l31
-41 331 514 c181 283 355 553 386 601 30 48 106 165 167 260 62 96 112 176
112 178 0 6 -4 5 -155 -37z"/>
<path d="M1655 2115 c-33 -8 -76 -16 -95 -19 -19 -3 -46 -8 -60 -11 -14 -3
-36 -7 -50 -10 -14 -3 -86 -17 -160 -31 -74 -14 -178 -33 -230 -44 -52 -10
-178 -35 -280 -54 -102 -19 -196 -37 -210 -40 -14 -3 -59 -12 -100 -20 -41 -8
-88 -17 -105 -20 -16 -2 -101 -19 -189 -35 -87 -17 -162 -31 -167 -31 -5 0 -9
-29 -9 -66 l0 -65 316 -508 317 -508 260 346 c143 190 270 358 281 372 12 14
30 38 41 53 11 16 29 40 41 55 11 14 76 100 145 191 68 91 127 170 132 175 38
46 207 275 207 279 0 8 -14 6 -85 -9z"/>
<path d="M1490 1019 c-162 -323 -292 -590 -290 -592 3 -3 37 -8 75 -11 39 -4
86 -9 105 -11 19 -3 64 -7 100 -10 36 -3 81 -8 100 -10 64 -7 154 -15 210 -20
30 -2 75 -7 100 -9 25 -3 72 -8 105 -11 33 -3 76 -8 95 -10 19 -2 67 -7 105
-10 39 -3 86 -8 105 -10 19 -2 62 -7 95 -10 33 -3 81 -8 106 -10 25 -3 66 -7
90 -9 129 -12 187 -17 214 -21 17 -2 62 -7 100 -10 39 -4 83 -8 98 -10 15 -1
27 1 25 5 -2 4 -41 49 -88 100 -47 51 -96 105 -110 120 -80 87 -197 215 -210
230 -8 10 -51 57 -95 105 -44 48 -89 97 -100 109 -106 117 -139 154 -219 240
-50 54 -98 107 -106 116 -8 10 -53 59 -100 110 -47 51 -92 100 -100 110 -46
52 -78 87 -96 101 -18 16 -28 -1 -314 -572z"/>
<path d="M4759 1405 c-63 -13 -129 -26 -145 -28 -16 -3 -78 -15 -139 -27 -60
-11 -121 -23 -135 -25 -21 -3 -295 -55 -370 -70 -14 -3 -52 -10 -85 -16 -33
-6 -91 -17 -130 -24 -87 -18 -135 -27 -155 -30 -8 -1 -28 -5 -45 -8 -16 -4
-46 -9 -65 -12 -19 -3 -66 -12 -105 -20 -38 -7 -124 -24 -190 -36 -66 -12
-121 -23 -123 -24 -1 -1 9 -20 23 -41 13 -22 164 -264 333 -539 373 -604 330
-568 462 -393 47 62 159 209 249 328 90 118 195 258 235 310 39 52 76 100 81
106 11 12 26 32 101 134 27 36 51 67 54 70 3 3 60 76 126 163 65 87 127 169
137 183 10 13 15 23 10 23 -4 -1 -60 -12 -124 -24z"/>
</g>
</svg>
